<?xml version="1.0" encoding="utf-8"?>
<!-- Generator: Adobe Illustrator 23.0.3, SVG Export Plug-In . SVG Version: 6.00 Build 0)  -->
<svg version="1.1" id="Layer_1" xmlns="http://www.w3.org/2000/svg" xmlns:xlink="http://www.w3.org/1999/xlink" x="0px" y="0px"
	 viewBox="0 0 1000 1000" style="enable-background:new 0 0 1000 1000;" xml:space="preserve">
<style type="text/css">
	.st0{fill:#FFCF00;}
	.st1{fill:#FDBA00;}
	.st2{opacity:0.33;fill:#FFFFFF;}
	.st3{fill:#FFFFFF;}
	.st4{fill:#FF6F01;}
	.st5{opacity:0.67;fill:#EF4B02;}
	.st6{opacity:0.43;fill:#FFFFFF;}
</style>
<g>
	<path class="st0" d="M288.45,481.36c-75.85-53.66-107.5-150.23-78.39-235.61c30.91-90.69,120.06-138.54,201.34-137.94
		c99.73,0.73,199.56,74.66,210.77,178.21c12.08,111.64-86.65,185.58-90.82,188.6c-0.05,0.06-0.79,0.91-0.48,2.01
		c0.23,0.8,0.92,1.4,1.77,1.53c19.64-3.48,35.76-4.35,46.91-4.5c31.5-0.42,46.44,4.63,72.18-1.71c13.4-3.3,22.9-8.01,28.27-10.71
		c55.05-27.68,55.27-73.85,96.17-84.61c16.02-4.21,36.66-2.56,50.76,8.35c19.04,14.73,17.01,39.22,24.42,75.82
		c9.4,46.46,23.08,58.46,34.38,92.53c22.26,67.12,18.11,168.09-36.52,235.18c-31.66,38.89-69.67,53.36-120.81,72.83
		c-70.64,26.89-127.55,28.1-237.33,30.42c-82.69,1.75-128.85-4.55-151.22-8.14c-56.59-9.07-84.88-13.61-113.52-29.99
		c-53.51-30.6-122.19-107.29-106.24-205.2c13.29-81.59,80.4-147.45,166.43-161.61c0.37-0.21,1.25-0.78,1.79-1.89
		C289.14,483.26,288.56,481.65,288.45,481.36z"/>
	<path class="st0" d="M359.13,678.85c5-24.08,17.65-39.47,22.07-44.72c29.33-34.82,74.57-40.11,89.1-41.6
		c80.14-8.22,98.6,47.68,165.79,37.91c55.21-8.03,76.55-50.69,104.31-36.41c33.17,17.05,28.89,66.43,18.29,95.12
		c-12.72,34.45-36.5,64.58-66.16,86.07c-41,29.71-92.28,43.46-142.91,43.68c-41.29,0.18-79.41-9.3-117.23-25.24
		c-31.64-13.34-55.61-29.29-67.47-55.9C352.88,710.73,358.16,683.56,359.13,678.85z"/>
	<path class="st1" d="M357.48,714.56c31.95,33.26,69.62,53.34,114.21,64.02c22.19,5.31,68.02,17.09,125.33,7.83
		c78.29-12.65,130.15-56.13,151.28-76.15c-1.85,4.13-4.54,9.54-8.3,15.57c-2.35,3.77-6.62,9.88-13.82,18.32
		c-9.93,11.64-21.26,22.08-33.64,31.06c-41,29.71-92.28,43.46-142.91,43.68c-41.29,0.18-79.41-9.3-117.23-25.24
		c-31.64-13.34-55.61-29.29-67.47-55.9C361.54,730.18,359.1,722.65,357.48,714.56z"/>
	<path class="st1" d="M226.33,853.63c-28.81-16.48-50.96-40.78-52.5-42.44c-13.04-14.08-21.56-26.96-24.21-31.05
		c-5.42-8.38-9.53-15.97-12.56-22.07c54.39,51.02,106.99,74.69,139.78,86.23c42.57,14.97,79.16,19.13,117.41,23.47
		c65.67,7.46,116.45,4.58,130.66,3.64c108.4-7.15,198.26-13.07,263.46-79.89c8.55-8.76,79.44-83.36,67.69-166.21
		c-7.24-51.06-29.86-57.22-26.56-111.38c2.31-37.91,17.22-72.39-0.32-115.45c-3.16-7.76-6.57-13.83-8.99-17.78
		c2.86,1.43,7.05,3.93,11.08,8.17c0.99,1.04,4.11,4.43,7.15,10.4c4.1,8.05,5.18,15.2,5.57,17.73c0,0,3.58,23.34,7.36,43.81
		c2.12,11.49,4.17,19.37,8.83,32.37c8.1,22.62,17.44,35.71,25.55,60.16c22.26,67.12,18.11,168.09-36.52,235.18
		c-31.66,38.89-69.67,53.36-120.81,72.83c-70.64,26.89-127.55,28.1-237.33,30.42c-82.69,1.75-128.85-4.55-151.22-8.14
		C283.27,874.55,254.98,870.01,226.33,853.63z"/>
	<path class="st1" d="M608.45,375.83c-19.24,23.07-49.02,51.82-91.89,73.4c-72.73,36.61-137.74,29.7-175.42,25.7
		c0,0-45.44-4.82-74.35-30.18c-9.32-8.17-12.1-15.14-13.04-20.26c-2.2-11.94,3.98-22.6,5.78-25.7
		c7.95-13.71,19.22-16.86,20.27-28.72c0.34-3.86-0.7-5.14-1.32-5.66c-4.2-3.52-16.46,5.35-17.89,6.4
		c-11.78,13.47-23.56,26.93-35.34,40.4c5.06,8.92,11.46,18.76,19.54,28.85c14.93,18.64,30.68,32.01,43.64,41.29
		c0.1,0.29,0.73,2.12-0.28,3.86c-0.52,0.89-1.25,1.38-1.65,1.61c23.77,8.96,59.93,19.29,104.74,19.81
		c64.53,0.75,114.07-19.21,140.08-32.02c11.69-9.06,25.22-21.16,38.55-36.95C588.98,415.08,600.95,392.88,608.45,375.83z"/>
	<path class="st2" d="M391.66,622.86c21.58-18.65,50.5-27.45,78.64-30.34c80.14-8.22,98.59,47.68,165.79,37.91
		c55.21-8.03,76.55-50.69,104.31-36.41c9.94,5.11,21.31,18.84,21.84,30.29c-3.91-9.64-12.28-17.17-22.95-18.1
		c-11.74-1.03-22.57,5.68-32.71,11.68c-23.18,13.72-48.52,25.23-75.41,26.8c-25.64,1.5-51.14-6.2-74.05-17.8
		c-11.23-5.69-22.02-12.34-33.79-16.79c-21.06-7.96-44.35-8.47-66.61-5.04S413,615.69,391.66,622.86z"/>
	<ellipse transform="matrix(0.1267 -0.9919 0.9919 0.1267 11.9526 533.5576)" cx="309.01" cy="259.99" rx="38.23" ry="30.2"/>
	<circle class="st3" cx="299.7" cy="245.43" r="10.82"/>
	<circle class="st3" cx="312.33" cy="270.7" r="4.61"/>
	<path class="st4" d="M231.62,411.6c8.6-2.14,16.11-6.4,21.99-13.81c8.89-11.19,21.78-15.36,27.13-29.97
		c2.83-7.75,2.75-17.54-2.56-23.22c-2.37-2.53-5.49-3.97-8.49-5.46c-10.16-5.01-20.23-11.43-26.4-21.71
		c-4.91-8.17-6.98-18.2-11.96-26.31c-4.64-7.55-11.77-13.13-19.75-15.45c-4.79-1.39-10.39-1.44-14.26,2.15
		c-2.19,2.04-3.52,4.98-4.74,7.84c-6.88,16.14-13.17,34.06-26.65,43.76c-13.52,9.74-31.24,8.53-45.98,2.23
		c-2.43-1.04-4.91-2.22-7.53-2.07c-4.58,0.27-8.31,4.6-10.22,9.3c-4.23,10.42-1.6,22.95,4.39,31.95s14.85,15.04,23.85,20.06
		c26.15,14.57,55.47,22.26,84.97,22.27C220.82,413.18,226.29,412.93,231.62,411.6z"/>
	<path class="st5" d="M231.62,411.6c5.54-1.38,10.62-3.64,15.11-7.05c1.6-1.22,3.32-3.12,6.87-6.76c4.16-4.26,3.5-3.9,5.56-5.85
		c3.1-2.93,5-4.14,10.22-8.62c0.56-0.48,1.82-1.57,3.35-3.14c0.98-1.01,1.74-1.88,2.22-2.44c-35.33,8.93-95.33,17.56-153.9-10.12
		c-7.2-3.4-13.91-7.13-20.17-11.08c0.25,1.59,0.71,3.76,1.58,6.22c0,0,1.48,4.15,4.1,8.09c5.99,9,14.85,15.04,23.85,20.06
		c26.15,14.57,55.47,22.26,84.97,22.27C220.82,413.18,226.29,412.93,231.62,411.6z"/>
	<path class="st6" d="M214.24,234.61c9.46-18.34,31.85-55.34,75.93-81.82c74.11-44.53,151.14-24.28,165.76-20.13
		c-0.47,10.76,0.63,27.85,10.3,44.98c15.68,27.74,47.84,44.91,78.93,42.2c14.31-1.25,25.27-6.43,31.49-9.96
		c10.15,12.75,26.5,36.73,34.81,71.01c9.76,40.25,3.34,73.67-0.94,89.94c6.17-15.72,16.42-48.14,11.15-88.88
		c-5.3-41-23.51-68.64-31.05-79.81c-37.83-56.02-110.08-97.21-189.08-94.14c-12.09,0.47-92.99,4.89-151.05,69.3
		C231.49,198.36,220.53,219.65,214.24,234.61z"/>
	<path class="st2" d="M162.34,339.51c13.63-5.21,23.56-21.53,27.31-32.29c1.33-3.8,3.66-12.02,6.7-11.93
		c0.29,0.01,1.44,0.12,2.8,2.52c3.38,5.97,2.66,16.46-1.79,25.32c-8.71,17.33-28.66,22.34-33.74,23.61
		c-10.98,2.76-18.9,1.33-29.88-0.64c0,0-9.49-1.71-12.69-6.67c-0.13-0.21-0.55-0.82-0.3-1.23c0.13-0.21,0.36-0.33,0.6-0.4
		c2.51-0.85,5.67,1.1,5.67,1.1C130.73,341.04,149.84,344.29,162.34,339.51z"/>
	<path class="st6" d="M142.37,709.26c-2.21-12.06-12.69-75.92,29.13-134.51c31.68-44.39,75.13-60.2,90.28-64.95
		c6.93,2.8,13.87,5.6,20.8,8.41c-15.87,4.38-64.03,19.86-100.8,67.69C141.79,637.89,141.83,693.61,142.37,709.26z"/>
</g>
</svg>
