<?xml version="1.0" encoding="utf-8"?>
<!-- Generator: Adobe Illustrator 23.0.3, SVG Export Plug-In . SVG Version: 6.00 Build 0)  -->
<svg version="1.1" id="Layer_1" xmlns="http://www.w3.org/2000/svg" xmlns:xlink="http://www.w3.org/1999/xlink" x="0px" y="0px"
	 viewBox="0 0 1000 1000" style="enable-background:new 0 0 1000 1000;" xml:space="preserve">
<style type="text/css">
	.st0{fill:#FFCF00;}
	.st1{fill:#FDBA00;}
	.st2{opacity:0.43;fill:#FFFFFF;}
	.st3{fill:#FFFFFF;}
	.st4{fill:#FF6F01;}
	.st5{opacity:0.67;fill:#EF4B02;}
	.st6{opacity:0.28;fill:#FFFFFF;}
</style>
<g>
	<path class="st0" d="M372.62,754.76c-23.83-11.47-72.46-39.18-107.98-96.84c-68.11-110.55-27.92-233.59-22.61-249.01
		C281.78,293.44,392.49,211.4,511.24,212.4c129.72,1.09,266.98,100.97,281.81,253.89c12.14,125.17-61.24,249.94-180.91,299.86"/>
	<path class="st1" d="M775.74,595.2c-22.93,28.93-63.04,71.67-123.88,103.61c-101.48,53.26-196.8,42.95-234.56,36.62
		c0,0-60.75-6.87-99.41-43c-12.46-11.64-16.18-21.57-17.44-28.86c-2.95-17.01,5.32-32.19,7.73-36.62
		c10.64-19.53,25.69-24.02,27.11-40.92c0.46-5.5-0.94-7.33-1.76-8.06c-5.62-5.02-22,7.62-23.91,9.12
		c-17.45,19.61-34.91,39.22-52.36,58.83c6.34,13.06,16.35,30.88,31.58,49.3c70.16,84.83,175.13,90.41,196.63,91.55
		c17.36,0.92,150.45,5.74,239.42-101.32C752.43,652.32,767.46,618.5,775.74,595.2z"/>
	<path class="st2" d="M247.62,393.05c12.65-26.13,42.58-78.83,101.52-116.57c99.1-63.45,202.09-34.59,221.64-28.68
		c-0.63,15.33,0.84,39.68,13.78,64.08c20.96,39.53,63.97,63.98,105.54,60.12c19.13-1.78,33.78-9.16,42.1-14.19
		c13.57,18.16,35.43,52.32,46.54,101.16c13.05,57.34,4.46,104.96-1.25,128.13c8.25-22.39,21.96-68.58,14.91-126.62
		c-7.09-58.42-31.43-97.79-41.51-113.7c-50.58-79.81-147.19-138.5-252.82-134.11c-16.17,0.67-124.34,6.97-201.97,98.73
		C270.69,341.4,256.03,371.74,247.62,393.05z"/>
	<g>
		<circle cx="523.43" cy="466.39" r="43.74"/>
		<circle class="st3" cx="536.84" cy="450.87" r="13.4"/>
		<circle class="st3" cx="522.55" cy="484.56" r="5.47"/>
	</g>
	<g>
		<circle cx="287.88" cy="457.12" r="43.74"/>
		<circle class="st3" cx="301.29" cy="441.6" r="13.4"/>
		<circle class="st3" cx="287" cy="475.29" r="5.47"/>
	</g>
	<g>
		<path class="st4" d="M239.3,560.21c1.21-0.79,2.25-1.35,2.25-1.35c2.97-1.37,6.27-1.22,18.37-4.29
			c12.57-3.2,19.35-5.99,30.45-9.88c18.74-6.56,40.82-14.28,55.19-16.58c32.09-5.14,36.47,15.06,103.72,36.92
			c36.14,11.75,58.18,13.49,60.96,27.63c1.85,9.41-5.79,19.45-13.07,26.81c-0.25,1.59-0.76,4.29-1.9,7.41
			c-1.33,3.64-5.85,14.24-21.57,23.26c-48.51,27.81-113.53,24.97-113.54,24.97c-13.11-0.57-32.11-2.26-54.91-7.44
			c-16.09-2.25-28.87-6.45-38.03-9.75c-10.04-3.62-17.86-7.35-21.89-15.87c-2.22-4.72-2.59-9.43-2.54-12.7
			c-14.57-3.31-26.74-12.65-29.53-24.85C208.35,583.01,234.88,563.08,239.3,560.21z"/>
		<path class="st5" d="M242.79,629.35c5.37,1.86,13.18,4.39,22.73,6.82c16.91,4.31,31.2,6.27,45.15,7.64
			c29.91,2.95,59.06,5.83,98.07,1.82c36.9-3.79,56.25-11.03,65.12-14.7c9.82-4.06,17.74-8.27,23.31-11.46
			c-0.16,1.08-0.41,2.49-0.85,4.11c0,0-0.11,0.42-0.3,1.04c0,0-0.35,1.14-0.76,2.25c-5.08,13.76-22.2,23.63-22.2,23.64
			c-47.7,26.89-110.38,24.69-110.38,24.69c-14.32-0.5-34.08-2.21-57.44-7.54c0,0-16.51-1.99-38.03-9.75
			c-10.04-3.62-17.86-7.35-21.89-15.88c-1.04-2.21-1.64-4.61-1.64-4.61C243.38,634.74,243.08,632.05,242.79,629.35z"/>
		<path class="st2" d="M332.46,538.85c8.34-2.96,16.71-4.5,25.51-2.87c8.51,1.57,16.68,4.66,24.25,9.23
			c8.05,4.86,15.43,9.04,24.25,11.86c2.1,0.67,8.77,2.21,8.93,5.55c0.3,6.06-18.9,0.51-21.37-0.12c-4.98-1.27-9.98-2.66-14.85-4.41
			c-10.32-3.69-20.14-10.02-31.21-10.34c-12.28-0.36-23.85,5.81-35.94,7.26c-3.63,0.44-10.19,2.64-13.39-0.3
			c-2.67-2.46,5.44-5.47,6.81-5.87c7.95-2.36,15.31-5.35,23.02-8.47C329.8,539.83,331.13,539.32,332.46,538.85z"/>
		<path class="st6" d="M225.35,610.91c4.94,3.13,11.34,6.92,19.03,10.8c0,0,9.75,5.97,20.09,8.94c33.25,9.55,75.38,10.7,75.38,10.7
			c41.62,1.14,62.43,1.71,86.27-2.47c20.95-3.67,38-9.08,49.8-13.4c-11.93,2.76-28.54,6.09-48.53,8.47
			c-35.78,4.26-62.62,3.1-90.4,1.78c-37.67-1.79-56.38-5.58-65.21-7.79c-1.55-0.39-3.09-0.81-3.09-0.81
			C249.2,621.88,234.77,615.59,225.35,610.91z"/>
		<path class="st6" d="M280.11,652.04c18.36,6.85,45.08,14.36,77.81,15.4c32.4,1.03,59.22-4.64,77.81-10.23
			c-22.22,3.61-49.16,6.08-79.72,4.94C326.92,661.07,301.33,656.94,280.11,652.04z"/>
	</g>
</g>
</svg>
