<?xml version="1.0" encoding="utf-8"?>
<!-- Generator: Adobe Illustrator 23.0.3, SVG Export Plug-In . SVG Version: 6.00 Build 0)  -->
<svg version="1.1" id="Layer_1" xmlns="http://www.w3.org/2000/svg" xmlns:xlink="http://www.w3.org/1999/xlink" x="0px" y="0px"
	 viewBox="0 0 1000 1000" style="enable-background:new 0 0 1000 1000;" xml:space="preserve">
<style type="text/css">
	.st0{clip-path:url(#SVGID_2_);}
	.st1{fill:#FFCF00;}
	.st2{fill:#FDBA00;}
	.st3{opacity:0.43;fill:#FFFFFF;}
	.st4{fill:#FF6F01;}
	.st5{opacity:0.67;fill:#EF4B02;}
	.st6{fill:#FFFFFF;}
	.st7{opacity:0.29;fill:#FFFFFF;}
	.st8{opacity:0.22;fill:#FFFFFF;}
</style>
<g>
	<defs>
		<circle id="SVGID_1_" cx="500" cy="488.53" r="361.21"/>
	</defs>
	<clipPath id="SVGID_2_">
		<use xlink:href="#SVGID_1_"  style="overflow:visible;"/>
	</clipPath>
	<g class="st0">
		<path class="st1" d="M608.39,1103.19c-18.6,1.75-37.25,2.89-55.93,3.41c-24.67,0.69-49.23-0.14-73.89-0.17
			c-29.01-0.04-58.06-0.51-86.97-3.24c-40.34-3.8-73.62-9.88-85.19-12.45C235.54,1074.95,93,992.76,80.82,845.93
			c-8.6-103.7,50.54-206.96,149.45-262.96c-32.18-118.46,0.62-240.23,84.69-311.35c71.6-60.57,155.81-63.6,184.32-63.34h1.44
			c28.51-0.26,112.72,2.77,184.32,63.34c84.07,71.12,116.87,192.89,84.69,311.35c98.91,56,158.05,159.26,149.45,262.96
			c-12.17,146.83-154.71,229.02-225.6,244.81C682.01,1093.32,648.73,1099.39,608.39,1103.19z"/>
		<path class="st2" d="M609.47,1104.71c-9.53,0.91-30.19,2.73-56.84,3.6c-11.17,0.37-27.4,0.7-73.92-0.4
			c-46.41-1.1-69.62-1.64-87.05-3.11c-10.62-0.9-52.29-4.41-85.76-12.63c-23.95-5.88-120.37-33.01-180.67-123.83
			c-10.88-16.39-39.02-59.88-44.4-122.41c-2.08-24.15-0.2-44.57,2.07-59.1c-2.41,63.35,28.98,125.19,75.8,167.93
			c46.82,42.74,107.68,67.81,169.84,80.26c63.6,12.74,127.3,11.01,191.68,11.93c142.95,2.04,239.47-14.15,313.05-85.42
			c22.52-21.82,63.64-69.89,80.93-159.79c2.47,10.52,5.14,25.79,4.98,44.18c-0.71,81.59-56.22,139.03-78.06,161.64
			c-7.17,7.42-64.86,65.8-145.45,84.47C672.94,1097.3,636.75,1102.09,609.47,1104.71z"/>
		<path class="st3" d="M299.59,285.76c23.36-17.89,85.89-60.63,173.38-60.93c40.48-0.14,73.83,8.85,96.96,17.44
			c1.24,6.8,7.49,36.83,35.41,56.75c38.05,27.16,81.94,10.95,85.4,9.61c11.45,11.65,23.33,25.44,34.69,41.63
			c36.03,51.34,50.29,103.12,56.42,138.76c-0.09-13.98-1.15-32.5-5.09-53.88c-7.56-41.02-21.57-70.09-25.11-77.24
			c-7.97-16.08-35.61-70.09-96.6-108.09c-5.76-3.59-35.61-21.85-77.16-32.38c-18.69-4.73-35.81-6.9-46.91-7.92
			c-3.74-0.34-18-1.58-36.99-1.23c-22.26,0.42-39.01,2.8-42.83,3.36c-13.01,1.91-43.41,6.62-78.88,23.41
			C339.41,250.59,315.47,270.21,299.59,285.76z"/>
		<path class="st4" d="M371.8,594.36c3.55,4.24,8.95,10.05,16.36,15.9c28.68,22.64,60.39,24.38,98.74,25.96
			c41.53,1.71,82.77,2.85,120.36-23.2c6.76-4.68,11.87-9.19,15.18-12.31"/>
		<path class="st5" d="M371.8,594.36c3.55,4.24,8.95,10.05,16.36,15.9c28.68,22.64,60.39,24.38,98.74,25.96
			c41.53,1.71,82.77,2.85,120.36-23.2c6.76-4.68,11.87-9.19,15.18-12.31"/>
		<path class="st4" d="M361.11,569.69c4.19-13.62,27.8-14.52,56.58-21.71c50.86-12.69,47.56-27.46,75.44-27.41
			c29.14,0.05,26.85,16.16,75.78,28.84c35.88,9.3,62.94,7.33,67.96,22.24c2.14,6.34-0.78,12.56-1.93,15.03
			c-15.4,32.92-89.35,32.42-133.64,32.12c-29.38-0.2-122.41-0.83-138.42-35.58C361.86,580.98,359.33,575.48,361.11,569.69z"/>
		<path class="st2" d="M781.85,489.02c-2.43,22.33-14,103.73-83.64,169.75c-80.73,76.52-179.3,75.32-198.2,74.72
			c32.32,5.06,133.16,16.54,228.63-44.3c39.19-24.98,65.79-54.69,82.87-77.93c-5.4-4.41-11.36-8.95-17.89-13.47
			c-8.32-5.76-16.36-10.65-23.89-14.81c3.09-11.33,5.92-23.95,8.06-37.76C781.03,524.35,782.01,505.38,781.85,489.02z"/>
		<path class="st2" d="M219.61,524.39c8.42,25.94,23.46,60.97,51.24,95.94c60.11,75.68,139.9,100.79,171.51,108.88
			c-39.47-4.74-112.97-19.62-180.76-74.72c-23.25-18.9-41.2-38.76-54.9-56.76c3.31-2.29,6.78-4.59,10.41-6.88
			c4.5-2.84,8.9-5.47,13.17-7.88c-2.21-8.12-4.28-16.9-6.07-26.29C222.01,545.19,220.55,534.37,219.61,524.39z"/>
		<g>
			<circle cx="617.61" cy="470.17" r="45.23"/>
			<circle class="st6" cx="631.47" cy="454.12" r="13.86"/>
			<circle class="st6" cx="616.69" cy="488.96" r="5.65"/>
		</g>
		<g>
			<circle cx="369.52" cy="462.73" r="45.23"/>
			<circle class="st6" cx="383.39" cy="446.68" r="13.86"/>
			<circle class="st6" cx="368.61" cy="481.52" r="5.65"/>
		</g>
		<path class="st1" d="M830.32,627.6c9.13,2.64,24.5,7.9,41.17,18.35c72.19,45.26,116.79,155.26,77.11,220.31
			c-6.19,10.15-18.03,25.1-41.72,37.71c-7.56,1.96-14.08,1.82-19.74,0.31C818.74,886.07,828.89,656.11,830.32,627.6z"/>
		<path class="st3" d="M830.32,627.6c9.13,2.64,24.5,7.9,41.17,18.35c16.54,10.37,31.11,23.75,43.56,38.73
			c6.39,7.69,12.24,15.84,17.51,24.33c4.44,7.15,7.44,15.84,12.13,22.64c-6.61-9.61-13.22-19.21-19.83-28.82
			c-3.4-4.94-6.81-9.89-10.8-14.36c-12.27-13.73-37.18-35-57.29-30.67c-11.83,2.55-16.52,14.94-20.74,24.94
			c-2.48,5.87-4.95,11.73-7.43,17.6c-0.17-15.19,0.36-30.4,0.73-45.62C829.38,652.94,831.13,627.84,830.32,627.6z"/>
		<path class="st2" d="M837.55,797.64c3.85,15.67,9.81,31.08,19.72,43.82c9.9,12.74,24.09,22.64,40.04,25.11s33.49-3.37,43.01-16.4
			c3.06-4.18,5.24-8.94,7.02-13.81c9.37-25.57,7.91-53.65,6.32-80.83c0.21,3.59,2.82,7.39,3.92,10.76
			c1.62,4.92,2.51,10.26,3.4,15.35c1.76,9.97,2.66,20.11,2.43,30.24c-0.42,18.99-4.87,38.06-14.83,54.38
			c-6.19,10.15-18.03,25.1-41.72,37.71c-7.56,1.96-14.08,1.82-19.74,0.31c-16.91-4.5-27.14-21.12-33.72-36.13
			C843.9,846.4,837.48,821.34,837.55,797.64z"/>
		<path class="st1" d="M169.67,627.6c-9.13,2.64-24.5,7.9-41.17,18.35C56.32,691.22,11.71,801.22,51.39,866.27
			c6.19,10.15,18.03,25.1,41.72,37.71c5.42,0.92,10.32,0.7,14.77-0.4C175.22,886.93,170.61,662.66,169.67,627.6z"/>
		<path class="st3" d="M169.68,628.19c-9.13,2.64-24.5,7.9-41.17,18.35c-16.54,10.37-31.11,23.75-43.56,38.73
			c-6.39,7.69-12.24,15.84-17.51,24.33c-4.44,7.15-7.44,15.84-12.13,22.64c6.61-9.61,13.22-19.21,19.83-28.82
			c3.4-4.94,6.81-9.89,10.8-14.36c12.27-13.73,37.18-35,57.29-30.67c11.83,2.55,16.52,14.94,20.74,24.94
			c2.48,5.87,4.95,11.73,7.43,17.6c0.17-15.19-0.36-30.4-0.73-45.62C170.62,653.52,168.87,628.42,169.68,628.19z"/>
		<path class="st2" d="M162.45,798.23c-3.85,15.67-9.81,31.08-19.72,43.82c-9.9,12.74-24.09,22.64-40.04,25.11
			c-15.95,2.47-33.49-3.37-43.01-16.4c-3.06-4.18-5.24-8.94-7.02-13.81c-9.37-25.57-7.91-53.65-6.32-80.83
			c-0.21,3.59-2.82,7.39-3.92,10.76c-1.62,4.92-2.51,10.26-3.4,15.35c-1.76,9.97-2.66,20.11-2.43,30.24
			c0.42,18.99,4.87,38.06,14.83,54.38c6.19,10.15,18.03,25.1,41.72,37.71c7.56,1.96,14.08,1.82,19.74,0.31
			c16.91-4.5,27.14-21.12,33.72-36.13C156.1,846.99,162.52,821.93,162.45,798.23z"/>
		<path class="st3" d="M384.72,594.36c6.69,2.83,16.73,6.74,29.27,10.23c8.45,2.36,28.05,7.32,84.87,8.81
			c36.82,0.97,55.67,1.35,77.39-3.47c16.61-3.69,29.93-8.75,39.05-12.72c-11.95,3.23-28.83,7.1-49.33,9.52
			c-24.29,2.87-41.8,2.3-71.83,1.33c-23.36-0.75-44.65-1.52-72.81-6.14C406.15,599.43,393.61,596.58,384.72,594.36z"/>
		<path class="st7" d="M416.39,616.87c18.84,5.86,44.7,11.78,75.79,12.81c36.82,1.22,67.22-4.89,88.07-10.82
			c-24.64,3.49-53.78,5.88-86.47,5.22C464.79,623.48,438.78,620.6,416.39,616.87z"/>
		<path class="st8" d="M463.73,536.55c13.16-6.47,27.02-9.76,42-5.8c7.76,2.05,14.75,5.76,21.77,9.24
			c7.44,3.69,14.82,5.76,22.66,8.44c4.33,1.48,5.02,5.86,1.29,8.22c-2.94,1.86-7.6,2.09-11.06,1.58
			c-11.56-1.73-21.82-6.51-33.01-9.17c-12.28-2.92-25.61-1.75-37.68,1.41c-10.12,2.65-26.36,11.35-36.16,3.97
			c-3.01-2.27-2.8-5.2,1.01-6.38c10.07-3.12,19.08-6.43,28.35-11.09C463.17,536.83,463.45,536.69,463.73,536.55z"/>
	</g>
</g>
</svg>
