<?xml version="1.0" encoding="utf-8"?>
<!-- Generator: Adobe Illustrator 23.0.3, SVG Export Plug-In . SVG Version: 6.00 Build 0)  -->
<svg version="1.1" id="Layer_1" xmlns="http://www.w3.org/2000/svg" xmlns:xlink="http://www.w3.org/1999/xlink" x="0px" y="0px"
	 viewBox="0 0 1000 1000" style="enable-background:new 0 0 1000 1000;" xml:space="preserve">
<style type="text/css">
	.st0{fill:#FFCF00;}
	.st1{fill:#FDBA00;}
	.st2{opacity:0.43;fill:#FFFFFF;}
	.st3{fill:#FF6F01;}
	.st4{opacity:0.67;fill:#EF4B02;}
	.st5{fill:#FFFFFF;}
	.st6{opacity:0.29;fill:#FFFFFF;}
	.st7{opacity:0.22;fill:#FFFFFF;}
</style>
<g>
	<path class="st0" d="M588.04,871.34c-15.53,1.47-31.11,2.42-46.71,2.85c-20.6,0.57-41.11-0.12-61.71-0.14
		c-24.23-0.03-48.49-0.43-72.63-2.71c-33.69-3.18-61.48-8.25-71.14-10.4c-59.2-13.19-178.24-81.83-188.41-204.46
		c-7.18-86.61,42.21-172.85,124.81-219.61c-26.87-98.93,0.52-200.63,70.73-260.03c59.8-50.59,130.13-53.12,153.94-52.9h1.2
		c23.81-0.22,94.14,2.31,153.94,52.9c70.21,59.4,97.6,161.1,70.73,260.03c82.6,46.77,132,133.01,124.81,219.61
		c-10.17,122.63-129.21,191.27-188.41,204.46C649.53,863.09,621.73,868.16,588.04,871.34z"/>
	<path class="st1" d="M588.94,872.6c-7.96,0.76-25.21,2.28-47.47,3.01c-9.33,0.31-22.88,0.58-61.74-0.33
		c-38.76-0.91-58.14-1.37-72.7-2.6c-8.87-0.75-43.67-3.68-71.62-10.55c-20-4.91-100.53-27.57-150.89-103.42
		c-9.09-13.69-32.59-50.01-37.08-102.23c-1.74-20.17-0.17-37.22,1.73-49.36c-2.01,52.91,24.21,104.55,63.31,140.25
		c39.1,35.7,89.93,56.63,141.85,67.03c53.12,10.64,106.32,9.19,160.09,9.96c119.39,1.7,200-11.82,261.45-71.34
		c18.81-18.22,53.15-58.37,67.59-133.45c2.07,8.78,4.29,21.54,4.16,36.9c-0.59,68.14-46.95,116.11-65.19,134.99
		c-5.99,6.2-54.17,54.96-121.47,70.54C641.95,866.41,611.73,870.42,588.94,872.6z"/>
	<path class="st2" d="M330.14,188.64c19.51-14.94,71.74-50.64,144.8-50.88c33.81-0.11,61.66,7.39,80.98,14.56
		c1.04,5.68,6.26,30.76,29.57,47.4c31.78,22.68,68.43,9.15,71.32,8.02c9.57,9.73,19.48,21.25,28.97,34.77
		c30.09,42.88,42,86.13,47.12,115.89c-0.07-11.67-0.96-27.14-4.25-45c-6.32-34.26-18.01-58.54-20.97-64.51
		c-6.66-13.43-29.74-58.54-80.68-90.27c-4.81-3-29.74-18.25-64.44-27.04c-15.61-3.95-29.9-5.77-39.18-6.62
		c-3.12-0.29-15.03-1.32-30.89-1.02c-18.59,0.35-32.58,2.34-35.77,2.81c-10.87,1.6-36.25,5.53-65.88,19.55
		C363.4,159.27,343.41,175.66,330.14,188.64z"/>
	<path class="st3" d="M390.45,446.37c2.97,3.54,7.47,8.39,13.66,13.28c23.95,18.9,50.44,20.36,82.46,21.68
		c34.68,1.43,69.13,2.38,100.52-19.38c5.64-3.91,9.91-7.67,12.68-10.28"/>
	<path class="st4" d="M390.45,446.37c2.97,3.54,7.47,8.39,13.66,13.28c23.95,18.9,50.44,20.36,82.46,21.68
		c34.68,1.43,69.13,2.38,100.52-19.38c5.64-3.91,9.91-7.67,12.68-10.28"/>
	<path class="st3" d="M381.52,425.77c3.5-11.37,23.22-12.13,47.25-18.13c42.48-10.6,39.72-22.93,63.01-22.89
		c24.34,0.04,22.43,13.49,63.29,24.08c29.97,7.77,52.56,6.12,56.76,18.57c1.78,5.29-0.65,10.49-1.61,12.55
		c-12.86,27.49-74.62,27.08-111.61,26.83c-24.54-0.17-102.24-0.69-115.6-29.72C382.15,435.2,380.04,430.61,381.52,425.77z"/>
	<path class="st1" d="M732.91,358.4c-2.03,18.65-11.69,86.63-69.85,141.77c-67.42,63.91-149.74,62.9-165.53,62.41
		c26.99,4.23,111.21,13.81,190.94-37c32.73-20.86,54.94-45.68,69.21-65.09c-4.51-3.69-9.49-7.47-14.94-11.25
		c-6.95-4.81-13.66-8.9-19.95-12.37c2.58-9.46,4.94-20,6.73-31.54C732.23,387.91,733.04,372.07,732.91,358.4z"/>
	<path class="st1" d="M263.34,387.94c7.03,21.67,19.6,50.92,42.8,80.13c50.2,63.2,116.84,84.18,143.24,90.94
		c-32.97-3.96-94.35-16.38-150.97-62.41c-19.42-15.78-34.41-32.37-45.85-47.4c2.76-1.91,5.66-3.83,8.69-5.75
		c3.76-2.38,7.43-4.56,11-6.58c-1.85-6.78-3.58-14.11-5.07-21.96C265.35,405.31,264.13,396.28,263.34,387.94z"/>
	<g>
		<circle cx="614.23" cy="354.02" r="35.61"/>
		<circle class="st5" cx="625.14" cy="341.38" r="10.91"/>
		<circle class="st5" cx="613.51" cy="368.8" r="4.45"/>
	</g>
	<g>
		<circle cx="378.98" cy="348.16" r="35.61"/>
		<circle class="st5" cx="389.89" cy="335.53" r="10.91"/>
		<circle class="st5" cx="378.26" cy="362.95" r="4.45"/>
	</g>
	<path class="st0" d="M773.39,474.14c7.62,2.2,20.46,6.6,34.38,15.33c60.29,37.8,97.54,129.67,64.4,184
		c-5.17,8.48-15.06,20.96-34.84,31.5c-6.31,1.64-11.76,1.52-16.48,0.26C763.72,690,772.2,497.95,773.39,474.14z"/>
	<path class="st2" d="M773.39,474.14c7.62,2.2,20.46,6.6,34.38,15.33c13.81,8.66,25.98,19.83,36.38,32.35
		c5.34,6.42,10.22,13.23,14.63,20.32c3.71,5.97,6.22,13.23,10.13,18.91c-5.52-8.02-11.04-16.05-16.56-24.07
		c-2.84-4.12-5.69-8.26-9.02-12c-10.24-11.47-31.05-29.23-47.84-25.61c-9.88,2.13-13.8,12.48-17.32,20.83
		c-2.07,4.9-4.14,9.8-6.21,14.7c-0.15-12.68,0.3-25.39,0.61-38.1C772.6,495.3,774.07,474.33,773.39,474.14z"/>
	<path class="st1" d="M779.43,616.15c3.22,13.09,8.2,25.96,16.47,36.6c8.27,10.64,20.12,18.91,33.44,20.97
		c13.32,2.06,27.97-2.82,35.92-13.7c2.55-3.49,4.38-7.47,5.86-11.53c7.82-21.35,6.6-44.81,5.28-67.51c0.17,3,2.35,6.17,3.28,8.98
		c1.35,4.11,2.09,8.57,2.84,12.82c1.47,8.33,2.22,16.8,2.03,25.26c-0.35,15.86-4.07,31.79-12.38,45.42
		c-5.17,8.48-15.06,20.96-34.84,31.5c-6.31,1.64-11.76,1.52-16.48,0.26c-14.12-3.76-22.66-17.63-28.16-30.18
		C784.73,656.87,779.37,635.94,779.43,616.15z"/>
	<path class="st0" d="M221.64,474.14c-7.62,2.2-20.46,6.6-34.38,15.33c-60.29,37.8-97.54,129.67-64.4,184
		c5.17,8.48,15.06,20.96,34.84,31.5c4.53,0.77,8.62,0.58,12.33-0.34C226.27,690.72,222.42,503.41,221.64,474.14z"/>
	<path class="st2" d="M221.64,474.63c-7.62,2.2-20.46,6.6-34.38,15.33c-13.81,8.66-25.98,19.83-36.38,32.35
		c-5.34,6.42-10.22,13.23-14.63,20.32c-3.71,5.97-6.22,13.23-10.13,18.91c5.52-8.02,11.04-16.05,16.56-24.07
		c2.84-4.12,5.69-8.26,9.02-12c10.24-11.47,31.05-29.23,47.84-25.61c9.88,2.13,13.8,12.48,17.32,20.83c2.07,4.9,4.14,9.8,6.21,14.7
		c0.15-12.68-0.3-25.39-0.61-38.1C222.43,495.79,220.97,474.82,221.64,474.63z"/>
	<path class="st1" d="M215.6,616.64c-3.22,13.09-8.2,25.96-16.47,36.6c-8.27,10.64-20.12,18.91-33.44,20.97s-27.97-2.82-35.92-13.7
		c-2.55-3.49-4.38-7.47-5.86-11.53c-7.82-21.35-6.6-44.81-5.28-67.51c-0.17,3-2.35,6.17-3.28,8.98c-1.35,4.11-2.09,8.57-2.84,12.82
		c-1.47,8.33-2.22,16.8-2.03,25.26c0.35,15.86,4.07,31.79,12.38,45.42c5.17,8.48,15.06,20.96,34.84,31.5
		c6.31,1.64,11.76,1.52,16.48,0.26c14.12-3.76,22.66-17.63,28.16-30.18C210.3,657.36,215.66,636.43,215.6,616.64z"/>
	<path class="st2" d="M401.24,446.37c5.58,2.37,13.97,5.63,24.44,8.55c7.06,1.97,23.43,6.11,70.88,7.36
		c30.75,0.81,46.5,1.13,64.64-2.9c13.87-3.08,25-7.3,32.62-10.62c-9.98,2.7-24.08,5.93-41.2,7.95c-20.29,2.4-34.91,1.92-59.99,1.11
		c-19.51-0.63-37.29-1.27-60.81-5.13C419.14,450.61,408.66,448.23,401.24,446.37z"/>
	<path class="st6" d="M427.69,465.17c15.73,4.89,37.33,9.84,63.3,10.7c30.75,1.02,56.14-4.09,73.55-9.04
		c-20.58,2.92-44.91,4.91-72.21,4.36C468.11,470.69,446.39,468.29,427.69,465.17z"/>
	<path class="st7" d="M467.23,398.1c10.99-5.4,22.56-8.15,35.07-4.84c6.48,1.72,12.32,4.81,18.18,7.71
		c6.21,3.08,12.38,4.81,18.92,7.05c3.62,1.24,4.19,4.9,1.08,6.87c-2.46,1.55-6.35,1.75-9.24,1.32c-9.65-1.45-18.22-5.44-27.57-7.66
		c-10.26-2.44-21.39-1.46-31.47,1.18c-8.46,2.21-22.02,9.48-30.2,3.31c-2.52-1.9-2.34-4.34,0.84-5.33
		c8.41-2.6,15.93-5.37,23.68-9.26C466.76,398.33,466.99,398.21,467.23,398.1z"/>
</g>
</svg>
