<?xml version="1.0" encoding="utf-8"?>
<!-- Generator: Adobe Illustrator 23.0.3, SVG Export Plug-In . SVG Version: 6.00 Build 0)  -->
<svg version="1.1" id="Layer_1" xmlns="http://www.w3.org/2000/svg" xmlns:xlink="http://www.w3.org/1999/xlink" x="0px" y="0px"
	 viewBox="0 0 1000 1000" style="enable-background:new 0 0 1000 1000;" xml:space="preserve">
<style type="text/css">
	.st0{fill:#FFCF00;}
	.st1{opacity:0.19;fill:#FFFFFF;}
	.st2{fill:#FDBA00;}
	.st3{opacity:0.43;fill:#FFFFFF;}
	.st4{fill:#FF6F01;}
	.st5{opacity:0.67;fill:#EF4B02;}
	.st6{fill:#FFFFFF;}
	.st7{opacity:0.28;fill:#FFFFFF;}
</style>
<g>
	<path class="st0" d="M127.66,654.29c-14.86-28.1-15.89-51.65-15.4-63.9c2.26-56.39,45.66-93.57,63.55-108.9
		c9.09-7.79,18.87-14.77,29.18-20.87c6-3.55,18.84-13.48,25.92-9.2c1.04,0.63,1.92,1.47,2.79,2.32c3.3,3.23,6.51,6.81,7.83,11.24"/>
	<path class="st0" d="M229.75,461.22c-3.56-7.23-59.6-126.13,10.17-238.07C304.15,120.1,420.19,110.9,438.28,109.79
		c24.47-1.51,95.96-4.82,160.77,45.69c78.32,61.04,85.62,152.92,86.57,167.99c1.41,0.41,3.51,1.04,6.01,1.89
		c98.31,33.2,167.17,176.6,153,305.18c-2.55,23.12-14.25,116.88-88.42,181.44c-32.47,28.27-65.02,40.58-96.7,52.56
		c-76.25,28.84-141.11,28.69-186.86,28.15c-50.52-0.59-125.6-4.12-209.3-41.99c-24.05-10.88-46.81-24.69-66.98-41.76
		c-57.07-48.32-78.17-124.33-64.87-196.55C148.02,522.61,213.54,472.85,229.75,461.22z"/>
	<path class="st1" d="M220.43,535.84c14.25,8.34,28.5,16.68,42.74,25.03c-12.15,16.39-27.4,41.22-37.13,74.2
		c-17.88,60.54-6.55,112.48,0.23,136.03c-10.93-13.81-38.55-52.48-42.07-109.39C180.13,596,210.86,549.29,220.43,535.84z"/>
	<path class="st2" d="M152.53,754.54c10.19,10.38,25.83,24.77,47.09,38.75c23.8,15.66,51.97,29.05,94.37,40.32
		c106.25,28.26,213.41,19.71,218.83,19.24c77.28-6.72,147.81-12.85,215.74-59.09c77.26-52.6,103.24-124.48,109.83-120.52
		c6.79,4.08-17.29,82.25-82.18,138.73c-32.47,28.27-65.02,40.58-96.7,52.56c-76.25,28.84-141.11,28.69-186.86,28.15
		c-50.52-0.59-125.6-4.12-209.3-41.99c-28.04-12.69-48.78-25.31-66.98-41.76C174.45,789.11,160.66,768.62,152.53,754.54z"/>
	<path class="st2" d="M229.75,461.22c-0.14,0.1-15.38-43.8-16.18-47.57c7.72,24.29,16.91,36.11,24.08,42.42
		c3.43,3.02,9.43,9.88,7.61,13.43c-1.47,2.86-7.4,2.36-10.05,2.91c-10.56,2.19-19.67,8.44-28.19,14.76
		c-7.96,5.9-15.17,12.79-22.11,19.84c-0.99,1-15.48,16.93-15.97,16.52c-0.43-0.35,6.76-10.16,15.11-20.01
		c5.98-7.05,12.35-13.78,19.05-20.16C211.47,475.39,220.36,467.96,229.75,461.22z"/>
	<path class="st0" d="M801.21,748.68c-35.12-6.09-46.6-77.02-47.56-108.82c-0.2-6.76-1.49-49.48,18.32-67.78
		c1.89-1.74,6.52-5.62,12.9-12.28c0,0,11.45-11.95,20.31-25.07c18.84-27.89,15-56.32,21.99-57.71
		c15.66-3.13,93.4,128.1,41.57,219.86C855.74,719.88,827.37,753.22,801.21,748.68z"/>
	<path class="st2" d="M801.21,748.68c-23.63-4.1-39.38-39.17-39.77-60.56c4.46,13.41,15.87,24.29,29.48,28.12
		c13.6,3.83,29.01,0.49,39.82-8.62c5.36-4.52,9.54-10.26,13.6-15.98c19.52-27.53,38.13-57.73,40.32-91.4
		c-0.19,16.23,2.41,31.73,0.1,48.23c-2.36,16.92-7.55,33.53-16.01,48.42C855.74,719.88,827.37,753.22,801.21,748.68z"/>
	<path class="st3" d="M752.51,632.76c3.1-9.12,2.14-21.25,4.4-30.94c2.52-10.8,6.72-22.04,15.05-29.73
		c1.89-1.74,6.52-5.62,12.9-12.28c0,0,11.45-11.95,20.31-25.07c18.83-27.89,15-56.3,21.98-57.71c8.36-1.69,17.73,16.1,20.22,21.95
		c-4.08-0.43-7.87,1.37-10.39,4.58c-2.51,3.2-3.7,7.19-5,11.04c-7.58,22.51-20.36,43.24-37.07,60.12
		c-6.3,6.37-13.15,12.19-19.21,18.79C765.34,604.78,757.38,618.25,752.51,632.76z"/>
	<path class="st3" d="M175.82,481.49c12.56-10.77,27.37-21.9,42.75-28.19c-6.15,4.87-14.82,12.03-24.64,21.28
		c-23.19,21.81-47.95,45.1-62.77,79.4c-6.21,14.37-14.56,39.7-12.97,74.85c-3.55-12.94-6.47-24.71-5.92-38.43
		C114.53,534,157.93,496.82,175.82,481.49z"/>
	<path class="st4" d="M266.68,444.3c3.36-2.18,4.52-1.33,16.75-4.12c10.21-2.34,15.72-4.38,24.73-7.21
		c15.22-4.79,33.16-10.43,44.83-12.11c26.07-3.75,29.63,11,84.25,26.97c29.36,8.58,47.26,9.85,49.52,20.18
		c1.5,6.87-4.7,14.21-10.62,19.58c-0.2,1.16-0.62,3.13-1.55,5.41c-1.08,2.66-4.75,10.4-17.52,16.99
		c-39.41,20.31-92.23,18.24-92.23,18.24c-10.65-0.42-26.08-1.65-44.61-5.43c-13.07-1.64-23.45-4.71-30.89-7.12
		c-8.16-2.64-14.51-5.37-17.78-11.59c-1.81-3.45-2.1-6.89-2.06-9.28c-2.59-0.88-6.09-2.5-9.02-5.67
		C249.58,477.32,254.29,452.35,266.68,444.3z"/>
	<path class="st5" d="M269.52,494.8c4.36,1.36,10.71,3.2,18.47,4.98c13.74,3.15,25.34,4.58,36.67,5.58
		c24.29,2.16,47.98,4.26,79.67,1.33c29.98-2.77,45.7-8.06,52.9-10.73c7.97-2.96,14.41-6.04,18.94-8.37
		c-0.13,0.79-0.33,1.82-0.69,3.01c0,0-0.09,0.31-0.24,0.76c0,0-0.28,0.83-0.62,1.65c-4.13,10.05-18.04,17.26-18.04,17.26
		c-38.75,19.64-89.66,18.04-89.66,18.04c-11.63-0.37-27.68-1.62-46.66-5.5c0,0-13.41-1.45-30.89-7.12
		c-8.16-2.64-14.51-5.37-17.78-11.6c-0.85-1.61-1.33-3.37-1.33-3.37C270,498.74,269.76,496.77,269.52,494.8z"/>
	<path class="st3" d="M205.34,336.05c0.67-17.86,3.75-44.84,15.63-75.19c15.9-40.62,39.99-67.91,56.24-83.28
		c5.48-5.18,29.13-27.04,67.51-44.45c63.59-28.83,134.24-30.3,186.06-13.47c31.64,10.28,57.07,27.64,58.39,28.55
		c13.41,9.28,23.62,18.6,30.79,25.86c-21.46-14.08-61.25-36.04-115.71-43.32c-38.63-5.16-71.14-1.14-93.1,3.44
		c-1.82,5.51-15.66,45.03-57.37,60.98c-31.88,12.19-60.04,2.96-67.68,0.17c-9.51,7.43-19.51,16.53-29.2,27.65
		C221.31,263.83,209.66,309.31,205.34,336.05z"/>
	<g>
		<circle cx="484.14" cy="387.36" r="31.95"/>
		<circle class="st6" cx="493.93" cy="376.03" r="9.79"/>
		<circle class="st6" cx="483.5" cy="400.63" r="3.99"/>
	</g>
	<g>
		<circle cx="256.89" cy="372.42" r="31.95"/>
		<circle class="st6" cx="266.68" cy="361.08" r="9.79"/>
		<circle class="st6" cx="256.25" cy="385.69" r="3.99"/>
	</g>
	<path class="st2" d="M628.33,183.07c8.08,14.71,18.1,36.07,25,63.1c4.95,19.42,34.79,136.36-40.19,227.42
		c-54.37,66.03-144.98,95.53-234.29,78.33c87.37,30.29,182.16,11.91,242.54-48.09c70.23-69.79,65.13-167.32,64.24-180.36
		c-2.78-40.87-17.34-75.04-19.45-79.9C654.45,216.61,639.84,196.54,628.33,183.07z"/>
	<path class="st3" d="M342.36,428.71c6.78-2.16,13.57-3.29,20.72-2.1c6.91,1.15,13.55,3.4,19.7,6.74c6.54,3.55,12.54,6.6,19.7,8.66
		c1.71,0.49,7.12,1.62,7.26,4.05c0.25,4.43-15.35,0.37-17.36-0.09c-4.05-0.93-8.11-1.95-12.06-3.22c-8.38-2.7-16.36-7.32-25.36-7.56
		c-9.98-0.27-19.37,4.24-29.2,5.31c-2.95,0.32-8.27,1.93-10.87-0.22c-2.17-1.8,4.42-3.99,5.53-4.29c6.45-1.72,12.44-3.91,18.7-6.19
		C340.2,429.42,341.28,429.05,342.36,428.71z"/>
	<path class="st7" d="M264.33,484.97c1.48,1.11,3.68,2.65,6.48,4.25c0.77,0.44,7.57,4.27,16.32,6.53
		c27.01,6.97,61.23,7.82,61.24,7.82c33.81,0.83,50.71,1.25,70.08-1.8c17.02-2.68,30.87-6.63,40.45-9.79
		c-9.69,2.02-23.19,4.45-39.42,6.18c-29.07,3.11-50.87,2.27-73.43,1.3c-34.79-1.49-49.67-4.86-55.48-6.28
		C279.58,490.49,270.63,487.39,264.33,484.97z"/>
	<path class="st7" d="M299.83,511.38c14.92,5,36.62,10.49,63.21,11.25c26.32,0.75,48.1-3.39,63.21-7.47
		c-18.05,2.63-39.94,4.44-64.76,3.61C337.86,517.97,317.07,514.96,299.83,511.38z"/>
	<path class="st3" d="M160.86,535.66c-10.42,17.2-22.41,42-28.75,73.58c-9.85,49.05-0.69,87.76,2.02,98.25
		c7.44,28.74,19.49,50.31,28.37,63.8c-12.08-28.32-30.45-82.62-23.44-150.66C142.66,585.66,151.96,556.85,160.86,535.66z"/>
</g>
</svg>
